<?xml version="1.0" encoding="UTF-8"?><svg id="Layer_2" xmlns="http://www.w3.org/2000/svg" viewBox="0 0 511.11 478.91"><defs><style>.cls-1{fill:#34a1e7;}</style></defs><g id="Layer_1-2"><g id="aZ8f8W.tif"><path class="cls-1" d="m7.09,478.91C1.52,475.8-.04,470.97,0,464.77c.1-15.65-.31-31.3,5.92-46.14,13.88-33.05,38.75-52.2,73.84-58.44,1.31-.23,2.62-.42,3.92-.69.27-.06.49-.4,1.02-.86-16.05-2.64-29.17-10.04-39.02-22.76-9.92-12.81-14.35-27.46-12.12-43.48,4.46-32,30.19-53.86,61.51-52.93,29.87.89,54.91,24.56,57.52,54.69,2.5,28.95-16.52,58.55-51.39,64.92,22.33,3.01,42.18,11.36,59.01,27.47,22.03-27.7,50.55-43.43,85.6-47.21-53.34-8.67-75.48-57.52-68.95-93.79,6.85-38.06,41.36-66.86,80.45-65.97,40.22.91,72.77,30.67,77.68,71.82,4.41,37-20.65,80.06-69.61,87.87,34.93,3.79,63.37,19.33,84.69,46.13,9.67-5.93,18.62-12.64,28.57-17.17,9.8-4.47,20.61-6.73,29.97-9.64-37.21-7.13-53.1-39.68-49.77-65.77,4.02-31.47,29.44-53.73,60.17-53.39,30.46.33,55.84,23.53,58.89,54.3,2.75,27.68-14.83,58.42-52.51,65.27,5.43,1.04,9.68,1.55,13.75,2.69,39.35,10.95,63.94,35.69,71.17,76.54.11.62.53,1.17.81,1.76v38.92H7.09Zm347.98-20.18c.84-31.34-16.21-68.06-50.77-86.68-35.18-18.96-70.5-17.76-103.91,4.15-29.23,19.17-43.37,47.38-44.65,82.54h199.34Zm-39.6-199.38c0-32.97-27.03-59.92-60.01-59.84-32.77.07-59.61,26.87-59.73,59.63-.12,32.98,26.79,60.04,59.76,60.09,32.98.06,59.99-26.9,59.98-59.88Zm-179.59,199.4c.4-18.51,4.13-35.76,12.12-51.94,1.43-2.9-.05-4.19-1.71-5.89-33.75-34.65-94.11-26.59-117.59,15.7-7.32,13.18-9.7,27.23-8.3,42.14h115.49Zm355.9.03c-.77-8.28-.54-16.24-2.36-23.68-6.76-27.52-24.41-45.41-51.44-52.97-27.84-7.79-52.44-.5-73.5,19.19-2.11,1.97-1.91,3.55-1.09,6.05,3.69,11.31,7.41,22.63,10.4,34.13,1.43,5.5,1.27,11.42,1.85,17.28h116.14Zm-358.97-159.65c-.14-21.68-18.13-39.64-39.79-39.73-21.78-.09-40.12,18.28-39.98,40.04.14,21.68,18.13,39.64,39.79,39.73,21.78.09,40.12-18.28,39.98-40.04Zm285.58-39.73c-21.6-.09-39.68,17.77-39.99,39.53-.31,21.69,17.93,40.14,39.78,40.24,21.6.09,39.68-17.77,39.99-39.53.31-21.69-17.93-40.14-39.78-40.24Z"/><path class="cls-1" d="m202.26,141.64c2.11-12.48,4.19-25.78,6.69-38.99.62-3.29-.3-5.17-2.54-7.3-8.91-8.49-17.6-17.2-26.49-25.71-3.54-3.39-5.47-7.2-3.76-12.02,1.64-4.64,5.53-6.22,10.12-6.84,12.18-1.65,24.33-3.52,36.52-5.14,3.12-.42,4.87-1.77,6.23-4.7,5.04-10.84,10.48-21.48,15.64-32.26C246.86,4.11,249.42.06,255.1,0c5.94-.06,8.52,4.14,10.78,8.88,5.07,10.64,10.49,21.12,15.45,31.8,1.44,3.1,3.3,4.54,6.6,4.98,12.18,1.62,24.34,3.46,36.52,5.14,4.58.63,8.38,2.31,9.96,7.02,1.58,4.69-.28,8.38-3.63,11.62-8.84,8.56-17.53,17.28-26.51,25.68-2.66,2.49-3.27,4.91-2.65,8.31,2.19,11.92,4.04,23.91,6.28,35.82.88,4.67.36,8.73-3.47,11.67-4.07,3.13-8.34,2.26-12.61-.02-10.69-5.71-21.51-11.19-32.14-17.01-3.08-1.69-5.46-1.86-8.63-.11-11.05,6.09-22.22,11.97-33.49,17.66-7.87,3.97-15.62-.76-15.28-9.84Zm52.98-108.99c-3.75,7.62-7.51,14.13-10.2,21.05-2.94,7.57-8.17,10.55-15.89,11.17-7.12.57-14.17,2.01-21.03,3.03,5.41,5.72,10.16,11.55,15.74,16.43,5.74,5.02,7.19,10.54,5.52,17.75-1.68,7.21-2.61,14.59-4.01,22.75,8-4.2,15.28-7.78,22.32-11.79,5.13-2.93,9.81-3.05,14.98-.08,7.01,4.02,14.27,7.59,22.45,11.89-1.53-8.91-2.71-16.74-4.25-24.5-1.16-5.87-.15-10.66,4.59-14.76,4.89-4.23,9.36-8.95,13.99-13.48,1.19-1.17,2.3-2.42,3.88-4.09-9.34-1.4-17.68-2.82-26.08-3.84-5.22-.63-8.37-3.38-10.52-7.95-3.59-7.63-7.38-15.17-11.49-23.58Z"/><path class="cls-1" d="m44.72,192.24c1.15-6.67,2.42-14.71,3.97-22.7.78-4.01.49-7.08-3.02-10.06-5.69-4.82-10.77-10.38-16.17-15.55-3.3-3.16-4.69-6.88-3.32-11.28,1.41-4.52,5.04-6.33,9.44-6.96,7.57-1.07,15.12-2.25,22.7-3.15,3.43-.41,5.61-1.66,7.09-5.06,2.84-6.54,6.35-12.78,9.38-19.24,2.17-4.63,4.88-8.48,10.56-8.44,5.7.04,8.29,4.09,10.45,8.65,3.06,6.45,6.45,12.75,9.33,19.27,1.4,3.17,3.5,4.38,6.73,4.78,7.58.94,15.13,2.15,22.7,3.15,4.64.62,8.31,2.58,9.83,7.22,1.45,4.47-.35,8.08-3.57,11.19-5.62,5.43-11.12,10.98-16.84,16.3-2.27,2.11-3.24,3.99-2.51,7.32,1.72,7.77,2.82,15.68,4.17,23.54.76,4.44-.15,8.33-3.96,11.06-3.63,2.6-7.43,2.34-11.28.31-7.19-3.8-14.49-7.41-21.58-11.4-2.67-1.5-4.66-1.41-7.27.05-7.25,4.04-14.59,7.95-22.06,11.56-7.66,3.7-14.98-1-14.75-10.57Zm68.86-48.73c-7.11-1.76-14.02-1.78-18.53-5.07-4.56-3.33-6.74-9.92-9.86-14.92-2.95,4.79-5.07,11.4-9.6,14.72-4.63,3.38-11.62,3.52-18.8,5.4,13.21,7.53,16.26,18.31,10.93,32.38,11.8-9.51,23.01-9.65,34.86-.08-5.41-14.21-1.83-24.84,11-32.42Z"/><path class="cls-1" d="m384.04,192.28c1.2-6.92,2.55-15.28,4.16-23.59.68-3.55.16-6.17-2.76-8.75-5.73-5.06-10.98-10.64-16.52-15.92-3.46-3.3-4.89-7.17-3.29-11.72,1.56-4.45,5.3-6.06,9.69-6.66,7.57-1.02,15.12-2.21,22.7-3.17,3.24-.41,5.25-1.7,6.66-4.88,3.16-7.12,6.88-14,10.28-21.02,1.97-4.07,4.92-6.76,9.59-6.77,4.69-.02,7.64,2.72,9.61,6.76,3.5,7.16,7.17,14.24,10.47,21.48,1.26,2.77,3.02,3.98,5.93,4.35,7.58.96,15.12,2.23,22.7,3.18,4.8.6,8.75,2.32,10.4,7.18,1.67,4.94-.67,8.63-4.13,11.93-5.65,5.4-11.36,10.75-16.72,16.42-1.31,1.39-2.16,4.03-1.91,5.93,1.04,7.9,2.52,15.73,3.95,23.57.84,4.6.2,8.67-3.75,11.61-3.99,2.97-8.08,2.2-12.17.02-6.88-3.67-13.88-7.15-20.67-10.98-2.61-1.47-4.61-1.57-7.27-.07-7.24,4.05-14.59,7.94-22.06,11.56-7.7,3.74-15.04-.83-14.88-10.47Zm12.37-50.33c4.92,5.83,10.55,9.91,12.26,15.25,1.72,5.36-.44,11.97-.88,17.77,5.44-2.17,11.07-6.15,16.71-6.17,5.61-.02,11.24,3.94,16.69,6.09-.37-5.82-2.41-12.41-.66-17.76,1.74-5.34,7.28-9.44,11.97-15.06-15.03,1.59-23.94-5.28-28.12-19.8-3.7,14.84-12.69,21.26-27.97,19.67Z"/><path class="cls-1" d="m295.06,390.77c1.1.46,3.42,1.01,5.25,2.27,11.59,7.9,20.57,18.16,26.85,30.71,2.77,5.54,1.22,11.11-3.62,13.84-4.89,2.75-10.56,1.41-13.58-4.15-5.4-9.97-12.56-18.18-21.71-24.82-3.86-2.81-5.2-6.87-3.53-11.47,1.51-4.16,4.68-6.26,10.34-6.36Z"/><path class="cls-1" d="m255.71,398.99c-5.22.06-9.93-4.55-10-9.8-.06-5.22,4.55-9.93,9.8-10,5.22-.07,9.93,4.56,10,9.8.07,5.22-4.56,9.93-9.8,10Z"/></g></g></svg>