<?xml version="1.0" encoding="UTF-8"?><svg id="Layer_2" xmlns="http://www.w3.org/2000/svg" viewBox="0 0 510.71 511.09"><defs><style>.cls-1{fill:#34a1e7;}</style></defs><g id="Layer_1-2"><g id="o1rpf6.tif"><path class="cls-1" d="m369.28,0C378.26,0,387.24,0,396.22,0c4.42.66,8.85,1.25,13.26,1.99,47.64,8.09,80.36,33.97,95.17,80.64,7.87,24.78,6.87,50.34,3.71,75.61-4.1,32.76-15.38,63.48-29.9,93.01-1.57,3.2-1.29,5.64.08,8.81,6.17,14.32,12.57,28.59,17.83,43.25,12.89,35.94,18.07,73.08,11.39,110.84-7.74,43.69-32.57,74.19-75.04,89.06-26.54,9.3-53.81,9.4-81.27,5.23-32.14-4.88-62.43-15.57-91.54-29.77-3.11-1.52-5.56-1.66-8.8-.16-10.69,4.95-21.4,9.95-32.43,14.06-37.81,14.11-76.6,22.78-117.16,16.29-48.34-7.73-81.26-34.31-95.46-81.95C3.1,416.97,1.97,406.47,0,396.23c0-8.98,0-17.96,0-26.95.5-3.4,1.07-6.8,1.48-10.21,2.62-21.63,8.02-42.57,15.37-63.05.47-1.3.57-3.66-.2-4.32C7.6,283.91,2.88,273.74,0,262.49v-13.97c2.83-10.5,6.76-20.43,15.32-27.71,2.31-1.96,2.34-3.62,1.54-6.35-4.3-14.58-8.74-29.15-12.29-43.92-2.27-9.42-3.09-19.2-4.56-28.81,0-8.98,0-17.96,0-26.95,1.01-6.38,1.73-12.81,3.08-19.12C13.32,47.82,41.39,16.71,89.34,4.73c8.98-2.24,18.28-3.19,27.43-4.73,7.65,0,15.3,0,22.96,0,3.76.49,7.52,1.03,11.29,1.47,34.7,4.05,67.27,15.05,98.5,30.3,4.11,2,7.34,2.13,11.51.08,25.12-12.36,51.26-21.91,78.83-27.13C349.62,2.86,359.47,1.55,369.28,0ZM75.48,215.05c2.98,3.54,5.54,6.39,7.88,9.41,2.32,2.99,4.42,6.16,6.87,9.61-4.79,2.4-9.05,4.53-13.23,6.62-13.67-17.3-28.03-21.94-43.67-14.36-14.06,6.82-21.2,22.41-17.22,37.61,3.75,14.32,17.54,24.58,32.3,23.99,7.74-.31,14.63-2.9,20.46-8.04,8.11-7.16,11.42-16.43,11.18-27.26,5.06-.44,9.74-.84,14.69-1.26,1.07,18.59-6.25,32.51-20.06,43.31.79,1.2,1.33,2.04,1.89,2.86,28.99,42.68,63.81,79.99,103.85,112.46,22.26,18.05,45.89,34.06,71.17,47.6,1.59.85,4.14,1.75,5.41,1.07,10.03-5.41,19.85-11.2,29.59-16.78-6.58-19.82-5.51-36.44,2.67-45.27,3.94,2.37,7.91,4.76,11.82,7.12-7.27,20.23-3.27,35.44,11.5,44.44,13.15,8.01,30.14,5.68,40.58-5.57,10.48-11.29,11.66-28.38,2.74-40.89-4.39-6.16-10.22-10.42-17.54-12.45-10.38-2.87-19.99-.81-28.98,5.37-3.13-4.08-6.02-7.83-8.89-11.57,17.17-13.51,37.55-13.15,59.54.72.39-.26.86-.47,1.21-.81,38.6-36.44,71.36-77.44,96.55-124.29.93-1.74.77-4.89-.18-6.69-12.16-22.97-26.53-44.52-42.55-64.97-3.66-4.67-7.45-9.24-11.12-13.77-24.93,14.32-47.33,6.17-59.46-5.59-15.94-15.44-18.29-34.8-7.09-60.49-.27-.36-.51-.83-.87-1.13-24.32-20.29-50.23-38.26-78.24-53.06-1.7-.9-4.85-.49-6.69.49-36.56,19.57-69.54,44.14-99.79,72.41-29.02,27.12-54.82,57.01-76.3,89.15Zm393.31,22.91c4.47-11.66,9.55-23.57,13.64-35.8,10.71-32,16.95-64.68,11.58-98.54-5.86-36.91-24.64-64.43-59.77-79.35-15.5-6.59-31.91-9.11-48.67-9.23-31.53-.23-61.57,7.16-90.78,18.42-7.51,2.9-14.87,6.18-21.43,8.93,25.25,17.6,50.41,35.12,75.79,52.81,19.51-13.95,42.27-9.89,52.12-1.9-2.41,4.02-4.83,8.08-7.2,12.04-18.84-7.7-34.9-3.6-44.07,10.83-8.35,13.15-6.19,30.29,5.19,41.03,11.25,10.62,28.92,11.88,41.25,2.55,16.5-12.49,16.81-31.83,7-46.39,3.72-2.89,7.46-5.8,11.58-9,13.36,19.91,12.94,39.21.74,57.44,17.8,25.57,35.23,50.63,53.02,76.19ZM30.79,209.19c9.09-.18,17.05-1.05,24.83-.21,4.45.48,6.37-.58,8.69-4,30.27-44.63,66.37-83.98,108.92-117.08,20.67-16.08,42.64-30.48,63.87-45.52-.24-.12-1.64-.92-3.12-1.52-9.69-3.91-19.25-8.21-29.14-11.58-33.05-11.24-66.8-18.09-101.84-12.23C59.96,24.23,31.29,48.27,19.41,90.86c-5.2,18.65-5.52,37.74-3.45,56.89,2.33,21.55,7.74,42.35,14.82,61.43Zm207.6,259.86l-.45-1.63c-.55-.37-1.08-.77-1.65-1.1-50.56-28.9-94.68-65.71-132.66-109.7-14.3-16.56-26.9-34.6-40.37-51.88-1.07-1.37-3.15-3.27-4.33-3.01-9.29,2.07-18.39,1.33-27.33-1.3-10.69,26.35-19.27,67.08-15.86,100.82,5.31,52.44,43.2,89.78,95.82,93.93,27.96,2.21,55.06-1.54,81.57-9.83,15.29-4.78,30.19-10.82,45.26-16.29Zm230.73-196.55c-.61.12-1.22.24-1.82.36-25.95,45.98-58.97,86.36-97.27,122.62.9,1.9,1.7,3.52,2.45,5.16,7.96,17.25,4.85,37.55-7.88,51.6-17.36,19.16-45.91,20.99-66.07,4.32-1.21-1-3.53-2.3-4.41-1.8-7.26,4.05-14.3,8.49-21.45,12.83.59.64.77.99,1.05,1.11,6.1,2.62,12.15,5.37,18.33,7.78,34.89,13.58,70.59,22.05,108.49,18.64,52.78-4.76,90.41-42.88,94.62-95.67,2.14-26.77-1.12-52.8-8.88-78.26-5.01-16.44-11.4-32.46-17.17-48.67Z"/><path class="cls-1" d="m315.55,253.56c-1.46,5-2.74,9.41-4.15,14.25-9.16-2.55-17.95-4.85-26.64-7.5-3.02-.92-5.04-.63-7.55,1.51-12.91,10.99-30.89,10.88-43.79-.17-2.14-1.84-3.85-2.34-6.63-1.53-15.61,4.57-31.31,8.83-46.94,13.32-9.59,2.75-15.88,9.27-16.51,19.08-.86,13.2-.21,26.51-.21,40.13h26.56v-19.91h15.04v20.22h18.51v14.76h-90.4v-14.55h15.05c0-2.48-.02-4.4,0-6.31.17-12.29-.57-24.69.77-36.85,1.73-15.62,11.2-26.03,26.25-30.63,15.23-4.66,30.61-8.83,46-12.94,3.9-1.04,4.96-2.81,5.14-6.84.4-8.91-.71-16.05-8.59-22.47-8.93-7.28-13.63-18.26-13.92-29.96-.34-13.56-1.07-27.49,1.5-40.65,4.79-24.5,29.64-41.57,54.01-39.34,26.64,2.44,47.14,22.44,48.43,48.35.61,12.38.35,24.96-1.11,37.26-1.42,11.94-8.28,21.64-17.69,29.13-2.98,2.37-4.1,4.82-3.8,8.44.39,4.76-1.18,10.74,1.17,13.96,2.17,2.98,8.37,3.04,12.81,4.35,5.39,1.6,10.79,3.17,16.71,4.9Zm-97.13-91.63c0,8.72-.67,16.87.14,24.86,1.66,16.35,15.65,29.97,31.62,31.79,18.1,2.06,34.54-7.67,40.23-24.07.58-1.68.34-4.36-.66-5.76-5.88-8.23-12.03-16.28-18.27-24.24-.97-1.24-2.9-2.45-4.4-2.46-16.09-.18-32.18-.11-48.66-.11Zm2.36-15.37c.65.17.97.33,1.29.33,16.43.03,32.86.23,49.29-.04,4.34-.07,7.02,1.24,9.4,4.78,3.41,5.09,7.36,9.83,11.58,15.39,2.86-21.61-9.78-40.22-28.99-44.16-18.49-3.79-37.81,6.86-42.56,23.69Zm20.07,86.66c1.39,6.42-3.7,14.57,5.26,19.24,6.92,3.61,13.78,3.53,20.15-1.05,7.12-5.12,2.24-12.41,3.52-18.19h-28.92Z"/><path class="cls-1" d="m325.97,271.86c1.43-5.03,2.69-9.45,3.93-13.81,19.4,2.66,32.66,17.91,33.03,37.89.19,10.3.04,20.61.04,30.91,0,1.81,0,3.61,0,5.95h15v14.97h-139.21v-14.6h67.13v-20.48h15.08v20.31c8.59,0,16.54.09,24.47-.13.86-.02,2.39-1.79,2.4-2.76.1-12.29.48-24.62-.24-36.87-.6-10.1-6.71-16.67-16.38-19.76-1.56-.5-3.12-.96-5.25-1.61Z"/><path class="cls-1" d="m278.03,274.03c7.31,2.07,13.79,3.91,20.97,5.94-1.31,4.8-2.55,9.32-3.94,14.39-6.99-1.97-13.73-3.87-21.08-5.94,1.38-4.88,2.65-9.39,4.06-14.39Z"/><path class="cls-1" d="m54.67,262.74h-14.44v-14.38h14.44v14.38Z"/><path class="cls-1" d="m323.87,302.51c-5.11-1.47-9.52-2.74-14.36-4.13,1.39-4.87,2.67-9.39,4.07-14.31,4.84,1.36,9.24,2.6,14.29,4.02-1.35,4.87-2.61,9.4-4.01,14.42Z"/><path class="cls-1" d="m322.25,427.75v-14.43h14.35v14.43h-14.35Z"/><path class="cls-1" d="m370.25,126.16h14.26v14.41h-14.26v-14.41Z"/></g></g></svg>