<?xml version="1.0" encoding="UTF-8"?><svg id="Layer_2" xmlns="http://www.w3.org/2000/svg" viewBox="0 0 379 511"><defs><style>.cls-1{fill:#34a1e7;}</style></defs><g id="Layer_1-2"><g id="PcQNEc.tif"><path class="cls-1" d="m379,201.36c-.15-1.27-.3-2.54-.45-3.81.09,0,.17,0,.26,0-.6,6.19-.98,12.42-1.87,18.57-.89,6.19-2.07,12.37-3.54,18.45-1.47,6.08-3.23,12.12-5.31,18.02-2.09,5.94-4.52,11.78-7.2,17.48-2.66,5.66-5.8,11.09-8.77,16.61-2.98,5.54-6.62,10.65-10.45,15.63-3.82,4.97-7.71,9.91-11.84,14.63-4.13,4.72-8.6,9.14-13.07,13.85,2.27,3.98,4.82,8.44,7.36,12.92,2.87,5.06,5.71,10.13,8.59,15.18,3.5,6.13,7.04,12.23,10.53,18.37,4.54,7.98,9.04,15.97,13.55,23.96,6.39,11.31,12.78,22.63,19.17,33.94.2.36.37.74.57,1.11,2.16,3.83,1.82,7.53-.79,10.95-2.56,3.36-6.02,4.47-10.17,3.59-12.74-2.69-25.5-5.34-38.25-8-9.3-1.94-18.6-3.87-27.91-5.8-1.77-.37-1.74-.34-2.35,1.37-3.53,9.97-7.09,19.94-10.63,29.91-4.16,11.73-8.34,23.46-12.46,35.2-1.29,3.69-3.64,6.22-7.45,7.19-4.29,1.1-8.26-.54-10.68-4.51-2.01-3.29-3.79-6.73-5.7-10.08-8.5-14.9-17.02-29.78-25.5-44.68-11.44-20.1-22.85-40.22-34.27-60.33-.25-.43-.51-.85-.88-1.49-.35.54-.65.96-.9,1.4-16.37,28.81-32.73,57.62-49.11,86.43-5.25,9.24-10.58,18.43-15.84,27.66-1.64,2.88-3.88,4.98-7.2,5.67-4.63.96-9.08-1.23-10.91-5.63-1.43-3.44-2.49-7.04-3.74-10.55-1.68-4.69-3.42-9.35-5.08-14.04-5.03-14.23-10.04-28.48-15.02-42.73-.34-.97-.73-1.13-1.71-.92-11.73,2.48-23.47,4.91-35.2,7.35-10.52,2.18-21.06,4.27-31.55,6.57-6.22,1.36-11.43-2.88-12.17-8.24-.35-2.51.46-4.76,1.65-6.9,3.19-5.73,6.37-11.47,9.6-17.18,9.84-17.38,19.69-34.76,29.56-52.12,6.71-11.8,13.45-23.59,20.22-35.36.41-.71.15-1.01-.29-1.45-4.08-4.09-8.28-8.07-12.2-12.31-10.55-11.4-19.35-24.06-26.87-37.65-3.75-6.77-7.07-13.74-9.77-20.97-4.21-11.29-7.64-22.81-9.76-34.7C1.01,211.62-.09,199.22,0,186.73c.06-8.69.98-17.34,2.26-25.94,1.66-11.11,4.26-21.99,7.91-32.62,6.8-19.77,16.66-37.87,29.39-54.44,15.09-19.64,33.48-35.48,54.74-48.06,9.66-5.72,19.84-10.41,30.43-14.13,5.9-2.07,11.91-3.85,17.93-5.54,5.13-1.44,10.21,1.57,11.72,6.65,1.58,5.28-1.01,10.5-6.19,12.19-4.1,1.33-8.33,2.28-12.38,3.73-5.5,1.97-10.95,4.1-16.3,6.45-20.87,9.16-38.93,22.32-54.4,39-11.42,12.32-20.75,26.12-28.11,41.25-6.62,13.62-11.49,27.82-14.23,42.73-1.39,7.57-2.18,15.21-2.63,22.89-.54,9.12-.16,18.2.79,27.27,2.14,20.45,7.88,39.81,17.21,58.16,7.13,14.03,15.96,26.83,26.64,38.36,13.16,14.2,28.22,25.97,45.37,35,12.2,6.43,24.98,11.37,38.37,14.69,14.23,3.53,28.7,5,43.33,4.89,9.07-.06,18.06-1.02,27.01-2.52,15.21-2.54,29.75-7.17,43.59-13.9,12.55-6.1,24.38-13.37,35.09-22.4,12.36-10.43,23.33-22.12,32.41-35.54,8.12-12,14.44-24.88,19.36-38.5,3.68-10.19,6.37-20.64,7.88-31.34,1.69-11.95,2.32-23.99,1.57-36.07-.98-15.68-3.94-30.97-9.22-45.76-6.77-18.93-16.33-36.31-29.19-51.83-7.64-9.23-16.22-17.45-25.56-24.95-11.77-9.45-24.66-17-38.48-22.98-7.66-3.32-15.54-6.04-23.65-8.05-3.88-.96-6.9-2.89-8.09-6.91-1.07-3.62-.42-6.95,2.19-9.72,2.59-2.75,5.79-3.84,9.51-2.87,19.57,5.1,38.03,12.72,55.05,23.77,17.82,11.57,33.63,25.35,46.71,42.14,5.65,7.24,10.7,14.91,15.41,22.8,6.85,11.47,12.02,23.69,16.18,36.32,3.99,12.09,6.64,24.52,8.03,37.18.34,3.09.42,6.22.62,9.33.07,1.03.13,2.07.34,3.1.12-1.06.25-2.12.37-3.18v23.95ZM116.69,477.1c.41-.63.63-.94.82-1.26,3.12-5.43,6.26-10.86,9.34-16.31,6.52-11.53,12.98-23.09,19.52-34.6,8.53-15.01,17.12-30,25.68-45,.27-.46.43-.99.62-1.42-34.79-3.45-66.22-15.36-94.55-35.55-15.92,28.06-31.69,55.84-47.58,83.84.64-.06,1.11-.08,1.57-.16,1.75-.34,3.5-.68,5.24-1.05,15.13-3.2,30.26-6.42,45.4-9.58,2.01-.42,4.13-.84,6.14-.66,3.73.33,6.36,2.58,7.8,5.99,1.27,3.01,2.32,6.13,3.41,9.21,3.66,10.32,7.28,20.65,10.95,30.97,1.82,5.12,3.69,10.21,5.64,15.58Zm89.43-98.65c18.72,32.93,37.38,65.73,56.16,98.77.24-.59.36-.85.46-1.12,3.76-10.72,7.51-21.45,11.29-32.17,2.56-7.28,5.1-14.56,7.76-21.8,1.86-5.07,5.93-7.43,11.26-6.68,1.64.23,3.24.68,4.87,1.02,12.39,2.57,24.77,5.14,37.16,7.7,4.38.9,8.76,1.77,13.38,2.7-15.91-28.07-31.71-55.96-47.59-83.97-28.3,20.48-59.85,32.17-94.74,35.54Z"/><path class="cls-1" d="m190.23,0c1.32.45,2.72.76,3.95,1.39,4.21,2.11,6.2,6.91,4.85,11.37-1.37,4.52-5.9,7.64-10.44,7.19-4.83-.48-8.87-4.58-9.09-9.24-.24-5.08,2.92-9.15,7.93-10.24.52-.11,1.03-.3,1.54-.46.42,0,.83,0,1.25,0Z"/><path class="cls-1" d="m189.47,39.93c80.98.29,148.27,64.71,149.48,147.22,1.25,85.23-66.05,150.87-147.1,152.06-83.37,1.23-149.6-64.45-151.87-145.34-2.4-85.54,66.29-153.53,149.49-153.93Zm129.69,147.77c-.81-69.76-57.88-126.99-127.8-127.85-73.3-.9-130.64,58.17-131.58,127.97-.97,72.4,57.86,132.09,130.57,131.6,71.03-.48,129.7-58.57,128.81-131.72Z"/><path class="cls-1" d="m189.28,92.71c4.2.13,7.23,1.85,9.02,5.39,5.75,11.37,11.43,22.77,17.12,34.17,2.21,4.42,4.36,8.86,6.52,13.31.41.85.9,1.33,1.92,1.48,8.17,1.18,16.34,2.43,24.5,3.65,7.51,1.12,15.02,2.24,22.53,3.36,1.97.29,3.96.47,5.9.9,7.53,1.66,10.47,10.11,5.56,16.05-1.58,1.92-3.43,3.62-5.2,5.38-10.63,10.53-21.23,21.09-31.96,31.51-1.61,1.56-1.99,2.95-1.61,5.08,1.53,8.58,2.84,17.2,4.28,25.8,1.35,8.06,2.74,16.12,4.15,24.17,1.27,7.25-4.41,13.22-11.56,11.96-1.46-.26-2.86-1.06-4.21-1.76-12.6-6.53-25.18-13.1-37.77-19.64-2.72-1.41-5.5-2.73-8.21-4.17-.83-.44-1.42-.11-2.08.23-9.93,5.19-19.85,10.39-29.78,15.57-5.56,2.9-11.1,5.81-16.7,8.63-4.43,2.23-8.98,1.54-12.17-1.74-2.48-2.55-3.18-5.63-2.59-9.08,1.3-7.57,2.6-15.14,3.86-22.71,1.13-6.76,2.2-13.52,3.32-20.28.5-2.99,1.01-5.98,1.61-8.95.16-.82-.04-1.31-.6-1.86-12.39-12.18-24.77-24.37-37.13-36.58-.97-.95-1.92-2-2.57-3.18-3.49-6.26.55-13.61,7.96-14.69,11.75-1.7,23.49-3.43,35.23-5.18,5.5-.82,10.99-1.72,16.48-2.55.86-.13,1.35-.49,1.76-1.31,7.63-15.35,15.33-30.66,22.95-46.02,1.61-3.24,3.67-5.83,7.37-6.66.76-.17,1.56-.21,2.1-.28Zm64.31,78.96c-.98-.19-1.81-.38-2.66-.51-11.2-1.67-22.4-3.41-33.62-4.95-5-.69-8.65-2.84-10.93-7.5-5.22-10.66-10.62-21.23-15.94-31.84-.28-.57-.56-1.13-.92-1.86-.28.48-.43.72-.56.97-2.48,4.98-4.93,9.97-7.43,14.94-3.28,6.53-6.57,13.05-9.9,19.55-1.53,2.98-4.07,4.66-7.32,5.22-2.29.4-4.6.66-6.9,1.01-9.4,1.41-18.8,2.83-28.19,4.25-1.25.19-2.5.44-3.96.7.79.75,1.43,1.33,2.04,1.93,3.86,3.84,7.71,7.69,11.58,11.52,4.73,4.68,9.47,9.33,14.2,14.02,2.77,2.75,3.78,6.04,3.09,9.91-.84,4.7-1.57,9.42-2.37,14.12-1.23,7.28-2.47,14.57-3.7,21.85-.11.66-.16,1.33-.27,2.19.46-.17.65-.22.82-.31,10.88-5.69,21.81-11.3,32.62-17.11,4.43-2.38,8.47-2.21,12.85.14,10.27,5.51,20.67,10.78,31.02,16.15.57.29,1.15.56,1.87.9-.16-1.38-.24-2.57-.44-3.75-1.78-10.56-3.38-21.16-5.45-31.67-1.13-5.74.04-10.2,4.41-14.23,6.66-6.14,12.99-12.63,19.44-18.99,2.18-2.15,4.31-4.35,6.59-6.65Z"/></g></g></svg>